<svg width="1534" height="227" viewBox="0 0 1534 227" fill="none" xmlns="http://www.w3.org/2000/svg">
<path d="M37.083 35.0718C15.7791 55.3386 0.298248 84.228 0.00558404 116.62C-0.49228 169.612 32.2894 218.348 103.205 225.313V157.023L37.0862 117.632L37.056 38.3021L37.083 35.0718Z" fill="#005BAC"/>
<path d="M179.661 35.2085C200.965 55.4753 215.642 84.2269 215.938 116.619C216.422 169.611 184.313 218.347 113.395 225.315V157.025L179.681 117.611V38.4391L179.661 35.2085Z" fill="#005BAC"/>
<path d="M79.4617 95.9016C80.3787 97.8052 82.7369 98.5663 84.7019 97.5512C86.667 96.663 87.4532 94.3791 86.4051 92.4755C81.8199 83.4663 72.3872 77.756 61.9068 77.756C46.7098 77.756 34.395 89.684 34.395 104.403V109.479C34.395 111.636 36.0982 113.286 38.3254 113.286C40.5524 113.286 42.2556 111.636 42.2556 109.479V104.403C42.2556 93.8714 51.033 85.3696 61.9068 85.3696C69.3742 85.3696 76.1866 89.4303 79.4617 95.9016ZM161.472 101.612C161.735 100.089 161.866 98.4395 161.866 96.7899C161.866 82.0704 149.551 70.1425 134.354 70.1425C125.052 70.1425 116.275 74.8376 111.297 82.3241C107.235 80.9284 102.781 81.5627 99.2439 83.9737C97.4098 85.1159 97.0167 87.5267 98.3267 89.3034C99.5058 91.0799 101.995 91.4604 103.829 90.1916C105.925 88.7957 108.545 88.9226 110.641 90.4453C111.559 91.2067 112.869 91.4604 114.048 91.2067C115.227 90.953 116.144 90.1916 116.668 89.0494C119.681 82.1972 126.624 77.756 134.354 77.756C145.228 77.756 154.005 86.2579 154.005 96.7899C154.005 98.9472 153.612 101.104 152.826 103.261C152.433 104.403 152.564 105.546 153.219 106.561C153.874 107.576 154.922 108.21 156.101 108.337C166.058 109.352 173.656 117.474 173.656 127.244C173.656 129.401 175.359 131.051 177.586 131.051C179.814 131.051 181.517 129.401 181.517 127.244C181.517 115.063 173.132 104.657 161.472 101.612ZM94.0035 117.6C83.2609 117.6 73.4353 123.691 68.9811 133.208C68.0639 135.112 68.9811 137.396 70.9462 138.284C71.4703 138.538 71.9943 138.665 72.5184 138.665C73.9594 138.665 75.4004 137.776 76.0554 136.381C79.1996 129.528 86.2742 125.214 94.0035 125.214C96.2307 125.214 97.9339 123.564 97.9339 121.407C97.9339 119.25 96.2307 117.6 94.0035 117.6ZM96.4926 7.61358H167.777C170.004 7.61358 171.707 5.96396 171.707 3.80679C171.707 1.64961 170.004 0 167.777 0H96.4926C87.0601 0 79.4617 7.35979 79.4617 16.4961V36.7988C79.4617 38.9561 81.1649 40.6058 83.3919 40.6058H109.593C111.821 40.6058 113.524 38.9561 113.524 36.7988V27.9165H167.777C170.004 27.9165 171.707 26.2668 171.707 24.1096C171.707 21.9524 170.004 20.3029 167.777 20.3029H109.593C107.366 20.3029 105.663 21.9524 105.663 24.1096V32.9922H87.3223V16.4961C87.3223 11.5472 91.3834 7.61358 96.4926 7.61358ZM100.423 76.1358V63.4465C100.423 61.2892 98.7199 59.6396 96.4926 59.6396C94.2656 59.6396 92.5625 61.2892 92.5625 63.4465V76.1358C92.5625 78.2928 94.2656 79.9425 96.4926 79.9425C98.7199 79.9425 100.423 78.2928 100.423 76.1358Z" fill="#005BAC"/>
<path d="M294.882 34.1029H305.268V148.256C305.268 151.13 302.943 153.46 300.074 153.46C297.207 153.46 294.882 151.13 294.882 148.256V34.1029ZM267.131 64.0137H330.458V74.3178H267.131V64.0137ZM295.166 68.1639L302.282 71.3123C300.573 76.4644 298.485 81.8552 296.018 87.4842C293.552 93.1135 290.85 98.6473 287.907 104.085C285.062 109.428 282.073 114.485 278.942 119.256C275.906 123.931 272.869 127.938 269.836 131.277C269.169 129.751 268.27 127.986 267.131 125.982C265.992 123.979 264.949 122.357 264 121.116C266.941 118.158 269.93 114.628 272.966 110.526C276.002 106.328 278.942 101.843 281.788 97.0729C284.633 92.207 287.197 87.3413 289.473 82.4754C291.749 77.5141 293.648 72.7435 295.166 68.1639ZM320.638 23.2261C324.623 21.4133 328.608 31.0974 328.608 31.0974C323.578 33.1964 317.746 35.1524 311.103 36.9649C304.558 38.6824 297.727 40.2568 290.612 41.6879C283.591 43.0235 276.76 44.1206 270.121 44.9795C269.93 43.8345 269.504 42.451 268.838 40.829C268.27 39.2071 268.396 39.0801 268.396 39.0801C274.325 37.0924 286.183 34.294 287.084 34.1029C293.821 32.6718 299.718 30.2388 305.697 28.5213C311.673 26.804 316.653 25.0389 320.638 23.2261ZM304.699 82.6186C305.932 83.4772 307.688 85.0036 309.964 87.1981C312.337 89.2971 314.85 91.6347 317.508 94.2106C320.259 96.6912 322.773 99.0289 325.049 101.223C327.325 103.322 328.94 104.849 329.888 105.803L323.343 114.103C322.109 112.481 320.447 110.478 318.362 108.093C316.274 105.612 313.996 103.084 311.529 100.508C309.063 97.8363 306.692 95.3557 304.414 93.0659C302.232 90.7758 300.432 88.963 299.008 87.6274L304.699 82.6186ZM350.949 25.0866C350.949 25.0866 363.684 28.6939 365.151 35.3924C366.324 40.751 363.578 48.5829 361.318 56.1423C358.295 66.2558 355.125 75.0917 351.597 86.6256C348.529 96.6567 343.456 111.125 340.218 121.652C337.285 129.494 334.352 139.297 328.485 138.862L327.469 138.576C329.651 131.134 331.88 122.738 334.158 113.388C336.434 103.943 338.616 94.1154 340.704 83.9065C342.789 73.6977 344.736 63.5844 346.539 53.5664C348.339 43.4528 349.507 33.9221 350.949 25.0866ZM315.229 136.429C321.017 135.952 327.754 135.332 335.438 134.569C343.217 133.71 351.519 132.851 360.341 131.993C369.259 131.039 378.177 130.037 387.095 128.987L386.173 134.395C378.351 136.846 369.499 138.862 361.5 141C354.167 142.96 342.772 146.296 335.438 148.256C332.538 149.032 330.232 149.632 328.172 150.133C323.131 151.356 318.181 148.14 316.857 143.125L316.752 142.727L315.229 136.429ZM364.326 95.3557L369.196 94.2106C373.147 100.699 376.168 104.28 379.079 108.65C382.538 113.85 389.371 124.551 392.217 132.565C394.59 139.244 397.495 144.856 396.928 148.609C396.13 153.889 385.684 154 385.684 154C383.801 148.719 382.257 143.034 380.075 136.356C377.894 129.582 376.753 122.595 373.719 115.535C370.777 108.379 367.647 101.652 364.326 95.3557Z" fill="#005BAC"/>
<path d="M557 59.8631H602.586V67.8495H557V59.8631ZM612.994 23L619.159 23.9338C622.952 24.7985 625.656 28.1585 625.684 32.0491L626.484 140.45C626.484 144.317 626.851 146.447 625.634 148.38C624.521 150.314 622.661 151.588 619.685 152.61C616.711 153.26 610.536 153.917 608.069 153.917C603.35 153.917 597.858 154.213 593.672 153.689C590.009 153.166 588.439 152.643 587.163 150.56C586.657 149.207 586.257 148.335 585.647 146.885C585.04 145.435 583.729 142.698 583.729 142.698C589.485 143.745 595.765 144.268 600.475 144.268C603.394 144.268 607.289 144.365 608.807 144.268C609.658 144.214 610.961 144.268 611.947 143.486C612.841 142.778 612.994 141.699 612.994 140.346V23ZM600.254 59.8631H604.147H606.309C609.828 59.8317 612.463 63.0553 611.439 66.4187C608.18 77.1445 604.198 88.152 600.254 96.6388C595.493 106.887 589.519 115.971 583.136 123.608C577.928 129.84 572.952 134.736 567.226 138.9C564.949 140.555 561.847 140.127 559.73 138.274C558.513 137.21 558.656 134.949 560.046 134.121C566.874 130.047 569.713 124.957 574.971 119.019C581.049 112.155 589.077 96.7582 591.331 91.0438C593.583 85.3291 597.006 73.7375 596.159 62.7162L600.254 59.8631ZM624.048 47.8136C626.683 57.4812 633.382 65.4134 637.435 74.5012C641.896 83.397 650.866 97.2539 656.866 104.404C659.582 107.641 664.577 112.361 667.277 114.418C674.619 120.017 673.128 119.004 688 127.906C684.277 132.138 681.712 133.807 679.178 134.649C674.717 136.133 671.397 137.229 665.691 133.807C659.985 130.385 654.268 123.569 650.189 117.52C646.111 111.47 636.677 94.2288 634.168 88.8238C628.294 76.159 623.483 62.6726 619.735 48.3643L624.048 47.8136ZM668.331 45.9064C675.43 48.0216 677.184 58.2693 670.737 61.9122C670.507 62.0417 670.275 62.1702 670.043 62.2977C662.589 65.197 659.68 66.7374 652.382 69.8799C646.265 72.8337 640.173 74.4554 634.968 76.5135L629.611 67.5064C634.755 65.3236 640.369 62.6449 646.455 59.4697C652.668 56.226 653.778 55.4922 659.677 51.9435C659.677 51.9435 664.004 48.9248 668.331 45.9064Z" fill="#005BAC"/>
<path d="M720.25 41.6061V29.8026C720.25 28.5403 721.144 27.4534 722.39 27.2058L726.903 26.3076L734.535 25.0265C736.161 24.7541 737.641 25.9994 737.641 27.6378V41.6061H720.25ZM699.647 39.0191H729.647H759.649L759.649 46.1647H699.647V39.0191ZM697.106 66.8112H762.19L762.19 73.572H697.106V66.8112ZM709.105 97.2285H750.332V100.972V104.715H709.105V97.2285ZM709.105 115.026H750.332V122.512H709.105V115.026ZM708.259 48.4826L716.871 46.505C718.095 48.7734 721.482 52.0137 722.517 55.4037C722.712 55.9849 722.829 56.5636 722.89 57.135C723.337 61.2863 719.449 65.2726 715.399 66.3658C714.451 66.6211 713.493 65.9998 713.305 65.0428C712.897 63.0002 712.299 60.6818 711.506 58.0876C710.563 54.6034 709.483 51.4017 708.259 48.4826ZM742.708 46.1647L743.44 46.3522C748.129 47.5531 752.086 52.9708 750.534 57.5352C750.473 57.7184 750.404 57.9025 750.332 58.0876C749.287 60.6214 745.328 63.0749 743.161 65.2019C742.278 66.0684 741.094 66.761 739.859 66.6848L735.589 66.4212C736.718 63.8786 738.801 58.8879 740.025 55.4037C741.25 51.8254 742.144 48.2819 742.708 46.1647ZM702.21 79.4311H747.296C749.206 79.4311 750.755 80.9724 750.755 82.8738V87.341H714.893V149.208H702.21V79.4311ZM746.862 79.4311C753.132 79.4311 758.217 84.4897 758.217 90.7296V137.909C758.217 140.451 757.887 142.476 757.227 143.982C756.663 145.583 755.487 146.807 753.699 147.655C751.814 148.502 746.756 148.973 743.836 149.067C741.013 149.255 732.159 149.35 728.204 149.35C727.922 147.937 727.403 146.289 726.65 144.406C725.993 142.617 725.333 141.063 724.676 139.745C727.688 139.839 735.837 139.886 738.189 139.886C740.542 139.98 741.537 139.98 742.99 139.886C744.443 139.886 745.409 139.745 745.893 139.462C746.54 139.18 746.862 138.615 746.862 137.767V79.4311ZM772.143 39.884L810.847 37.6937C814.336 37.4964 817.223 40.3575 817.04 43.8293C816.963 45.2643 815.77 46.3874 814.325 46.3821L770.879 46.2227L772.143 39.884ZM770.879 92L809.235 88.6654C813.357 88.3069 816.904 91.5411 816.904 95.6603C816.904 96.9307 815.885 97.969 814.61 98L770.879 99.0625V92ZM771.302 107.257L808.524 103.94C812.646 103.572 816.199 106.804 816.199 110.923C816.199 112.19 815.182 113.227 813.908 113.258L771.302 114.32V107.257ZM770.456 122.643L810.052 119.283C814.118 118.938 817.609 122.129 817.609 126.19C817.609 127.445 816.603 128.47 815.342 128.5L770.456 129.565V122.643ZM766.643 24.5057C775.989 24.5057 782.865 33.2154 780.656 42.2515L776.135 60.7339L766.643 61.2305V24.5057ZM766.643 56.0043H811.582V80.1729C811.582 81.6355 810.39 82.8211 808.921 82.8211H766.643V75.8881H800.085V63.0177H766.653L766.643 56.0043ZM766.643 79.1486H779.61V136.355C779.61 138.709 780.081 140.215 781.021 140.875C781.963 141.628 782.908 142.828 785.116 142.828C785.869 142.828 787.328 142.828 789.494 142.828C791.751 142.828 794.199 142.828 796.834 142.828C799.471 142.828 801.964 142.828 804.317 142.828C806.669 142.828 808.364 142.828 809.4 142.828C810.999 142.828 812.545 142.163 813.391 141.503C814.512 140.632 814.552 139.368 814.927 137.767C815.164 136.766 815.43 135.383 815.515 133.123C816.643 133.876 818.104 134.63 819.893 135.383C821.774 136.042 823.421 136.56 824.832 136.937C824.036 140.179 823.741 141.703 822.705 144.152C821.763 146.6 820.526 148.408 818.456 149.35C816.481 150.385 813.657 150.903 809.985 150.903C809.421 150.903 808.245 150.903 806.456 150.903C804.668 150.903 802.646 150.903 800.386 150.903C798.127 150.903 795.82 150.903 793.467 150.903C791.208 150.903 789.185 150.903 787.397 150.903C785.702 150.903 784.526 150.903 783.868 150.903C779.443 150.903 775.962 150.479 773.421 149.632C770.972 148.879 769.232 147.466 768.197 145.395C767.161 143.323 766.643 140.31 766.643 136.355V79.1486Z" fill="#005BAC"/>
<path d="M841.497 32.5474H894.499V40.5892H841.497V32.5474ZM857.193 57.0267V80.8614H883.76V69.2963V57.0267H857.193ZM845.386 57.9213C845.304 53.4774 848.896 49.831 853.354 49.831H887.238C891.64 49.831 895.208 53.3882 895.208 57.7759V83.1021C895.208 86.0274 892.828 88.3987 889.895 88.3987H851.162C848.266 88.3987 845.902 86.086 845.851 83.1991L845.386 57.9213ZM879.592 94.2364C879.804 92.73 881.199 91.6543 882.708 91.8913L891.534 93.2793C893.138 93.5317 894.14 95.1476 893.561 96.6609C892.225 100.156 890.662 103.45 889.074 109.246C888.843 110.091 886.095 118.385 884.749 122.113C879.419 122.12 875.211 116.829 876.239 111.615C876.576 109.904 876.882 108.37 877.118 107.344C877.984 103.903 877.674 104.599 878.346 101.062C878.874 98.6286 879.289 96.3534 879.592 94.2364ZM848.875 96.3163C852.222 95.5102 855.857 96.3886 858.612 98.4464C861.922 100.919 865.718 103.963 866.409 107.264C866.805 108.975 866.914 110.702 866.89 112.38C866.818 117.35 862.785 121.667 857.886 122.601C856.034 122.954 854.308 121.567 854.124 119.697C853.853 116.906 853.351 113.797 852.623 110.369C851.662 105.303 850.413 100.618 848.875 96.3163ZM836.733 134.604C841.731 133.743 847.448 132.692 853.888 131.449C860.421 130.111 867.342 128.677 874.645 127.147C881.637 125.682 888.675 124.218 895.758 122.753C896.263 122.648 896.749 122.999 896.81 123.51C897.222 127.053 894.895 130.323 891.475 131.369C883.154 133.912 874.831 137.544 867.296 140.721C863.182 142.21 859.447 143.368 855.441 144.79C848.99 147.079 839.674 144.876 837.35 136.755L836.733 134.604ZM899.541 30L963.94 30.2095V38.9266H899.541V30ZM917.216 78.8217V92.8749H945.845V78.8217H917.216ZM917.216 100.762V115.102H945.845V100.762H917.216ZM917.216 56.8818V70.7915H945.845V56.8818H917.216ZM903.877 56.5095C903.877 52.1218 907.445 48.5646 911.847 48.5646H950.973C955.375 48.5646 958.943 52.1218 958.943 56.5095V115.474C958.943 119.862 955.375 123.419 950.973 123.419H911.847C907.445 123.419 903.877 119.862 903.877 115.474V56.5095ZM927.517 30.2095L939.002 32.4248C937.849 36.5355 937.857 35.6417 936.51 39.848C935.261 44.0543 934.06 47.6872 932.907 50.7463L922.905 53.2968C923.481 51.0979 924.058 48.6602 924.634 45.9835C925.306 43.211 925.883 40.4388 926.364 37.6663C926.94 34.8941 927.325 32.4084 927.517 30.2095ZM917.57 126.43L926.94 131.879C924.44 134.365 921.414 136.802 917.859 139.193C914.302 141.582 910.556 143.733 906.616 145.645C904.345 146.832 902.089 147.918 899.852 148.904C897.153 150.094 894.002 149.158 891.914 147.079C890.471 145.741 889.175 144.594 888.022 143.638C891.672 142.395 895.373 140.818 899.119 138.906C902.963 136.898 906.473 134.843 909.642 132.739C912.91 130.541 915.553 128.438 917.57 126.43ZM939.047 132.453L947.408 127.147C950.194 128.772 953.125 130.684 956.201 132.883C959.373 134.986 962.352 137.089 965.139 139.193C968.021 141.296 970.375 143.255 972.2 145.072L962.976 151.239C961.246 149.518 958.988 147.544 956.201 145.345C953.51 143.242 950.58 141.076 947.408 138.877C944.334 136.582 941.932 134.174 939.047 132.453Z" fill="#005BAC"/>
<path d="M1034 29.5L989.5 37.5L991.5 44.5H1006.5V60.5H985V67.5H1006.5V149C1006.5 149 1010.99 149.591 1013.5 148.5C1015.91 147.454 1018.5 145.5 1018.5 144V83.5L1036 110C1040.44 103.481 1041.5 99 1036.5 91C1031.5 83 1018.5 74.5 1018.5 74.5V67.5H1039.5V60.5H1018.5V42.5C1032.73 39.5217 1036.57 36.79 1034 29.5Z" fill="#005BAC"/>
<path d="M1005 82C1005 76 998.5 73.5 998.5 73.5C998.5 73.5 984 110 984 112.5C984 115 987.5 119.5 988 118.5C988.5 117.5 1002.67 91.5604 1003 90.9C1003.33 90.2396 1005 88 1005 82Z" fill="#005BAC"/>
<path d="M1076 68C1075 67.0001 1051 43.5 1051 43.5C1051 43.5 1052.56 41.3221 1054 40.5C1055.73 39.5121 1057 39 1059 39.5C1061 40 1066.74 45.4049 1070.5 50C1075.1 55.6228 1080 64.5 1079.5 66C1079 67.4935 1077 69 1076 68Z" fill="#005BAC"/>
<path d="M1069.5 97C1069 96.5001 1045.5 73.5 1044.5 72.5C1043.5 71.5001 1047.05 69.2909 1049.5 68.5C1051.95 67.7092 1055.74 68.511 1060.5 74C1065.02 79.2165 1074.62 93.7949 1073 95C1071.38 96.2052 1070 97.5 1069.5 97Z" fill="#005BAC"/>
<path d="M1044.5 124.5C1039.64 122.916 1035.5 115 1035.5 115L1085.5 107.5V28C1085.5 27 1088 27.5 1092 28.5C1096 29.5 1097.5 31 1097.5 32V106L1107.5 104.5V110L1097.5 113.5V145.5C1097.5 147 1085.5 151 1085.5 149V116.5L1053 124.5C1053 124.5 1047.66 125.529 1044.5 124.5Z" fill="#005BAC"/>
<path d="M1198.08 38.3391V47.8782H1182.32H1166.56V51.1415V54.7812H1182.32H1198.08V63.693V72.9811H1186.14H1174.19V76.2444V79.5078H1197.37H1220.55L1219.5 83.5C1217.5 95.5 1208.5 110.5 1204.89 114.351L1203.57 115.807L1200.57 112.844C1196.91 109.28 1189.03 100.193 1186.64 96.7786C1185.32 94.921 1182.17 89.9506 1180.54 87.1391C1180.39 86.9383 1173.68 90.051 1173.68 90.302C1173.68 92.6617 1185.93 109.531 1194.83 119.371C1196.05 120.777 1197.06 122.032 1197.06 122.233C1197.06 122.685 1190.76 128.157 1186.64 131.22C1181.1 135.387 1173.99 139.805 1167.58 143.068C1164.38 144.675 1161.63 146.081 1161.53 146.131C1161.13 146.382 1164.68 150.298 1165.29 150.298C1166.87 150.298 1175.05 147.185 1178.92 145.127C1185.17 141.763 1187.1 140.658 1187.41 140.307C1187.56 140.156 1189.03 139.102 1190.71 137.998C1192.34 136.893 1195.74 134.332 1198.28 132.324L1202.81 128.659L1209.01 134.835C1220.7 146.532 1227.87 150.75 1235.95 150.8C1240.27 150.8 1243.78 149.344 1246.27 146.532C1248.35 144.223 1248.25 144.072 1242.3 141.462C1236.81 139.002 1227.36 133.68 1222.07 130.015C1215.11 125.245 1211.04 122.082 1211.04 121.43C1211.04 121.078 1212.11 119.572 1213.43 118.116C1220.75 109.832 1224.06 105.263 1228.48 97.3308C1232.19 90.6033 1233.66 86.4864 1233.66 82.6708C1233.66 78.3531 1232.54 76.5959 1228.53 74.6378C1224.5 73 1225.22 72.9811 1217.55 72.9811H1209.77V63.693L1209.75 54.6861H1226.01H1242.28L1242.3 51.1415V47.8782H1226.04H1209.77V40.0963C1209.77 32.5152 1209.72 32.214 1208.55 31.0592C1207.08 29.6033 1204.28 28.8 1200.77 28.8H1198.08V38.3391Z" fill="#005BAC"/>
<path d="M1128 63.7496V57.5H1143V29C1143 29 1154.5 29 1154.5 33V57.5H1169V63.7496H1154.5V87.5C1154.5 87.5 1165.5 84.5 1166.5 84C1167.5 83.5 1170.5 89.5 1169.5 90C1168.5 90.5 1155 98 1155 98L1154.5 139.5C1154.5 144.5 1147.5 151.5 1135.5 151.5L1130.5 140C1130.5 140 1136 140.5 1139.5 140C1143 139.5 1143 137 1143 137V102.5C1143 102.5 1138.42 103.935 1135.5 103.5C1130.79 102.798 1125.5 96.5 1125.5 96.5L1143 90.5V63.7496H1128Z" fill="#005BAC"/>
<path d="M1264 64V57H1310.5C1310.5 57 1311 46 1311 42V26C1320.1 24.6021 1329.1 28.0512 1329.5 32.5C1329.9 36.9489 1328.5 57 1328.5 57H1380V64H1327.5L1325.5 74.5C1341.3 105.1 1364 132 1383.5 143C1382.5 146.5 1375.5 152 1366.5 151C1357 148.5 1346.83 137.093 1339 122C1332 108.5 1322 86 1322 86C1322 86 1313.19 106.9 1307.5 115.5C1287 146.5 1265.5 151 1265.5 151L1261.5 146.5C1261.5 146.5 1285.5 131 1297.5 106.5C1303.5 95.5 1307.88 77.6165 1309.5 64H1264Z" fill="#005BAC"/>
<path d="M264.048 171.411H266.765L285.773 194.294H285.955V171.411H288.101V203.458H286.976L266.4 177.997H266.225V202.722H264.048V171.411Z" fill="#005BAC"/>
<path d="M357.585 171.411V173.484H346.751V203.458H341.719V173.484H330.86V171.411H357.585Z" fill="#005BAC"/>
<path d="M310.82 204.459C312.615 204.459 314.203 204.071 315.585 203.272C316.98 202.488 318.139 201.374 319.077 199.966C320.032 198.554 320.745 196.876 321.232 194.934C321.721 192.979 321.966 190.861 321.966 188.555C321.966 186.29 321.721 184.213 321.232 182.307C320.745 180.401 320.032 178.773 319.077 177.398C318.139 176.03 316.98 174.957 315.585 174.194C314.203 173.427 312.615 173.055 310.82 173.055C308.978 173.055 307.369 173.427 305.966 174.194C304.579 174.957 303.406 176.03 302.473 177.398C301.535 178.773 300.827 180.401 300.357 182.307C299.881 184.213 299.646 186.29 299.646 188.555C299.646 190.861 299.881 192.979 300.357 194.934C300.827 196.876 301.535 198.554 302.473 199.966C303.406 201.374 304.579 202.488 305.966 203.272C307.369 204.071 308.978 204.459 310.82 204.459ZM310.82 206.128C309.187 206.128 307.637 205.92 306.129 205.5C304.641 205.084 303.259 204.488 301.982 203.72C300.694 202.966 299.52 202.047 298.478 200.978C297.417 199.9 296.514 198.713 295.782 197.419C295.041 196.113 294.464 194.718 294.058 193.224C293.652 191.734 293.446 190.175 293.446 188.555C293.446 186.972 293.652 185.445 294.058 183.988C294.464 182.528 295.041 181.16 295.782 179.891C296.514 178.626 297.417 177.471 298.478 176.426C299.52 175.382 300.694 174.488 301.982 173.745C303.259 172.994 304.641 172.431 306.129 172.014C307.637 171.61 309.187 171.411 310.82 171.411C312.455 171.411 314 171.61 315.512 172.014C316.996 172.431 318.377 172.994 319.66 173.745C320.938 174.488 322.116 175.382 323.158 176.426C324.219 177.471 325.123 178.626 325.86 179.891C326.598 181.16 327.178 182.528 327.584 183.988C327.98 185.445 328.188 186.972 328.188 188.555C328.188 190.167 327.98 191.706 327.584 193.207C327.178 194.709 326.598 196.113 325.86 197.419C325.123 198.713 324.219 199.9 323.158 200.978C322.116 202.047 320.938 202.966 319.66 203.72C318.377 204.488 316.996 205.084 315.512 205.5C314 205.92 312.455 206.128 310.82 206.128Z" fill="#005BAC"/>
<path d="M382.974 171.411H385.991L407.111 194.294H407.315V171.411H409.698V203.458H408.448L385.585 177.997H385.392V202.722H382.974V171.411Z" fill="#005BAC"/>
<path d="M423.06 190.981H433.961L428.576 178.585L423.06 190.981ZM430.517 171.411L444.44 203.458H439.387L434.865 193.008H422.197L417.523 203.458H415.043L429.285 171.411H430.517Z" fill="#005BAC"/>
<path d="M470.54 171.54V173.613H459.705V203.587H454.673V173.613H443.815V171.54H470.54Z" fill="#005BAC"/>
<path d="M477.359 171.54H481.875V203.587H477.359V171.54Z" fill="#005BAC"/>
<path d="M505.005 203.299C506.665 203.299 508.132 202.911 509.407 202.111C510.692 201.327 511.767 200.213 512.63 198.805C513.512 197.393 514.169 195.716 514.618 193.773C515.07 191.818 515.297 189.7 515.297 187.394C515.297 185.129 515.07 183.052 514.618 181.146C514.169 179.241 513.512 177.612 512.63 176.237C511.767 174.87 510.692 173.796 509.407 173.033C508.132 172.266 506.665 171.895 505.005 171.895C503.308 171.895 501.822 172.266 500.526 173.033C499.249 173.796 498.164 174.87 497.303 176.237C496.437 177.612 495.785 179.241 495.35 181.146C494.911 183.052 494.692 185.129 494.692 187.394C494.692 189.7 494.911 191.818 495.35 193.773C495.785 195.716 496.437 197.393 497.303 198.805C498.164 200.213 499.249 201.327 500.526 202.111C501.822 202.911 503.308 203.299 505.005 203.299ZM505.005 204.968C503.501 204.968 502.068 204.759 500.679 204.339C499.305 203.923 498.028 203.327 496.849 202.56C495.662 201.805 494.577 200.886 493.618 199.817C492.637 198.74 491.803 197.552 491.124 196.259C490.443 194.953 489.911 193.557 489.534 192.063C489.16 190.574 488.97 189.015 488.97 187.394C488.97 185.811 489.16 184.285 489.534 182.828C489.911 181.367 490.443 180 491.124 178.73C491.803 177.465 492.637 176.31 493.618 175.266C494.577 174.221 495.662 173.327 496.849 172.584C498.028 171.833 499.305 171.27 500.679 170.854C502.068 170.45 503.501 170.25 505.005 170.25C506.518 170.25 507.945 170.45 509.337 170.854C510.708 171.27 511.986 171.833 513.17 172.584C514.348 173.327 515.436 174.221 516.395 175.266C517.376 176.31 518.21 177.465 518.891 178.73C519.573 180 520.107 181.367 520.482 182.828C520.848 184.285 521.04 185.811 521.04 187.394C521.04 189.007 520.848 190.545 520.482 192.047C520.107 193.549 519.573 194.953 518.891 196.259C518.21 197.552 517.376 198.74 516.395 199.817C515.436 200.886 514.348 201.805 513.17 202.56C511.986 203.327 510.708 203.923 509.337 204.339C507.945 204.759 506.518 204.968 505.005 204.968Z" fill="#005BAC"/>
<path d="M527.287 171.411H530.002L549.006 196.201H549.191V171.411H551.339V206.128H550.214L529.634 178.546H529.468V205.331H527.287V171.411Z" fill="#005BAC"/>
<path d="M564.702 190.981H575.595L570.223 178.585L564.702 190.981ZM572.155 171.411L586.082 203.458H581.028L576.506 193.008H563.833L559.172 203.458H556.684L570.921 171.411H572.155Z" fill="#005BAC"/>
<path d="M588.754 171.411H594.102V201.388H610.134V203.458H588.754V171.411Z" fill="#005BAC"/>
<path d="M635.522 171.411H638.237L657.247 196.201H657.429V171.411H659.574V206.128H658.449L637.874 178.546H637.698V205.331H635.522V171.411Z" fill="#005BAC" stroke="#005BAC" stroke-width="0.3"/>
<path d="M664.919 171.411H669.602V193.422C669.602 194.866 669.805 196.226 670.206 197.495C670.609 198.772 671.194 199.898 671.961 200.85C672.726 201.809 673.634 202.56 674.703 203.12C675.759 203.666 676.959 203.933 678.276 203.933C679.607 203.933 680.813 203.666 681.874 203.12C682.94 202.56 683.843 201.809 684.597 200.85C685.345 199.898 685.917 198.772 686.31 197.495C686.711 196.226 686.917 194.866 686.917 193.422V171.411H688.972V193.422C688.972 195.158 688.739 196.79 688.28 198.325C687.825 199.861 687.104 201.204 686.115 202.369C685.126 203.537 683.867 204.447 682.328 205.123C680.786 205.798 678.939 206.128 676.78 206.128C674.856 206.128 673.156 205.798 671.675 205.123C670.195 204.447 668.96 203.528 667.958 202.356C666.951 201.192 666.205 199.827 665.686 198.267C665.171 196.714 664.919 195.049 664.919 193.301V171.411Z" fill="#005BAC" stroke="#005BAC" stroke-width="0.3"/>
<path d="M694.317 171.411H697.032L716.041 196.201H716.223V171.411H718.369V206.128H717.244L696.669 178.546H696.492V205.331H694.317V171.411Z" fill="#005BAC" stroke="#005BAC" stroke-width="0.3"/>
<path d="M773.155 171.411V173.657H761.238V206.128H755.706V173.657H743.758V171.411H773.155Z" fill="#005BAC" stroke="#005BAC" stroke-width="0.3"/>
<path d="M778.51 192.612H789.398L784.029 179.183L778.51 192.612ZM785.953 171.411L799.879 206.128H794.828L790.307 194.807H777.631L772.965 206.128H770.482L784.729 171.411H785.953Z" fill="#005BAC" stroke="#005BAC" stroke-width="0.3"/>
<path d="M815.871 204.459C817.664 204.459 819.26 204.071 820.639 203.272C822.031 202.488 823.185 201.374 824.126 199.966C825.08 198.554 825.796 196.876 826.283 194.934C826.772 192.979 827.018 190.861 827.018 188.555C827.018 186.29 826.772 184.213 826.283 182.307C825.796 180.401 825.08 178.773 824.126 177.398C823.185 176.03 822.031 174.957 820.639 174.194C819.26 173.427 817.664 173.055 815.871 173.055C814.029 173.055 812.418 173.427 811.015 174.194C809.631 174.957 808.455 176.03 807.527 177.398C806.589 178.773 805.884 180.401 805.403 182.307C804.938 184.213 804.695 186.29 804.695 188.555C804.695 190.861 804.938 192.979 805.403 194.934C805.884 196.876 806.589 198.554 807.527 199.966C808.455 201.374 809.631 202.488 811.015 203.272C812.418 204.071 814.029 204.459 815.871 204.459ZM815.871 206.128C814.233 206.128 812.685 205.92 811.183 205.5C809.695 205.084 808.308 204.488 807.03 203.72C805.747 202.966 804.574 202.047 803.535 200.978C802.471 199.9 801.57 198.713 800.833 197.419C800.093 196.113 799.515 194.718 799.109 193.224C798.7 191.734 798.497 190.175 798.497 188.555C798.497 186.972 798.7 185.445 799.109 183.988C799.515 182.528 800.093 181.16 800.833 179.891C801.57 178.626 802.471 177.471 803.535 176.426C804.574 175.382 805.747 174.488 807.03 173.745C808.308 172.994 809.695 172.431 811.183 172.014C812.685 171.61 814.233 171.411 815.871 171.411C817.504 171.411 819.054 171.61 820.548 172.014C822.05 172.431 823.426 172.994 824.703 173.745C825.991 174.488 827.17 175.382 828.204 176.426C829.271 177.471 830.174 178.626 830.906 179.891C831.646 181.16 832.224 182.528 832.625 183.988C833.031 185.445 833.239 186.972 833.239 188.555C833.239 190.167 833.031 191.706 832.625 193.207C832.224 194.709 831.646 196.113 830.906 197.419C830.174 198.713 829.271 199.9 828.204 200.978C827.17 202.047 825.991 202.966 824.703 203.72C823.426 204.488 822.05 205.084 820.548 205.5C819.054 205.92 817.504 206.128 815.871 206.128Z" fill="#005BAC" stroke="#005BAC" stroke-width="0.3"/>
<path d="M857.338 171.411H862.02V193.422C862.02 194.866 862.223 196.226 862.624 197.495C863.027 198.772 863.613 199.898 864.38 200.85C865.144 201.809 866.053 202.56 867.122 203.12C868.177 203.666 869.377 203.933 870.695 203.933C872.026 203.933 873.231 203.666 874.292 203.12C875.358 202.56 876.261 201.809 877.015 200.85C877.763 199.898 878.335 198.772 878.728 197.495C879.129 196.226 879.335 194.866 879.335 193.422V171.411H881.39V193.422C881.39 195.158 881.157 196.79 880.698 198.325C880.243 199.861 879.522 201.204 878.533 202.369C877.544 203.537 876.285 204.447 874.746 205.123C873.204 205.798 871.357 206.128 869.198 206.128C867.274 206.128 865.574 205.798 864.094 205.123C862.613 204.447 861.378 203.528 860.376 202.356C859.369 201.192 858.623 199.827 858.105 198.267C857.589 196.714 857.338 195.049 857.338 193.301V171.411Z" fill="#005BAC" stroke="#005BAC" stroke-width="0.3"/>
<path d="M889.407 171.411H892.133L911.129 196.201H911.311V171.411H913.459V206.128H912.318L891.762 178.546H891.599V205.331H889.407V171.411Z" fill="#005BAC" stroke="#005BAC" stroke-width="0.3"/>
<path d="M919.884 171.54H925.229V206.257H919.884V171.54Z" fill="#005BAC" stroke="#005BAC" stroke-width="0.3"/>
<path d="M934.786 171.411L946.032 198.388L956.502 171.411H958.892L945.323 206.128H944.038L929.494 171.411H934.786Z" fill="#005BAC" stroke="#005BAC" stroke-width="0.3"/>
<path d="M981.707 171.411V173.657H967.522V186.055H977.004V188.306H967.522V203.886H981.707V206.128H963V171.411H981.707Z" fill="#005BAC" stroke="#005BAC" stroke-width="0.3"/>
<path d="M992.885 188.054H995.699C996.792 188.054 997.808 187.879 998.738 187.533C999.657 187.183 1000.45 186.692 1001.14 186.047C1001.82 185.41 1002.35 184.629 1002.74 183.723C1003.12 182.801 1003.31 181.78 1003.31 180.653C1003.31 179.628 1003.16 178.671 1002.85 177.795C1002.54 176.933 1002.12 176.181 1001.59 175.558C1001.04 174.934 1000.39 174.456 999.641 174.097C998.888 173.747 998.073 173.572 997.167 173.572H992.885V188.054ZM988 171.411H998.059C999.802 171.411 1001.34 171.633 1002.66 172.085C1003.96 172.525 1005.07 173.157 1005.94 173.965C1006.81 174.763 1007.47 175.733 1007.93 176.83C1008.37 177.936 1008.59 179.145 1008.59 180.465C1008.59 181.528 1008.41 182.536 1008.08 183.488C1007.74 184.428 1007.25 185.278 1006.63 186.034C1006 186.785 1005.25 187.435 1004.38 187.998C1003.5 188.554 1002.54 188.981 1001.48 189.284L1012.05 206.128H1006.4L996.301 189.801H992.885V206.128H988V171.411Z" fill="#005BAC" stroke="#005BAC" stroke-width="0.3"/>
<path d="M1024.98 204.4C1025.72 204.4 1026.46 204.298 1027.18 204.077C1027.91 203.844 1028.56 203.514 1029.13 203.073C1029.69 202.628 1030.14 202.086 1030.49 201.437C1030.83 200.792 1031.01 200.053 1031.01 199.217C1031.01 198.196 1030.78 197.298 1030.29 196.507C1029.82 195.715 1029.2 194.993 1028.43 194.327C1027.67 193.666 1026.79 193.042 1025.8 192.458C1024.81 191.883 1023.8 191.299 1022.78 190.703C1021.75 190.128 1020.74 189.508 1019.75 188.863C1018.75 188.226 1017.88 187.504 1017.11 186.724C1016.35 185.933 1015.73 185.055 1015.26 184.076C1014.78 183.105 1014.55 181.986 1014.55 180.709C1014.55 179.435 1014.76 178.264 1015.19 177.179C1015.62 176.085 1016.26 175.146 1017.08 174.342C1017.92 173.555 1018.93 172.926 1020.14 172.477C1021.35 172.028 1022.76 171.8 1024.33 171.8C1027.17 171.8 1029.41 172.457 1031.06 173.779C1032.71 175.089 1033.9 176.995 1034.63 179.489L1032.03 180.799C1031.74 179.791 1031.36 178.852 1030.89 178.015C1030.42 177.179 1029.85 176.444 1029.21 175.848C1028.56 175.253 1027.8 174.775 1026.96 174.457C1026.12 174.13 1025.16 173.963 1024.1 173.963C1023.15 173.963 1022.32 174.114 1021.61 174.408C1020.9 174.702 1020.32 175.077 1019.85 175.546C1019.39 176.016 1019.03 176.546 1018.79 177.15C1018.56 177.742 1018.44 178.35 1018.44 178.966C1018.44 179.84 1018.68 180.644 1019.16 181.358C1019.65 182.084 1020.3 182.77 1021.09 183.427C1021.87 184.076 1022.78 184.692 1023.79 185.296C1024.82 185.888 1025.85 186.496 1026.91 187.112C1027.96 187.736 1029 188.381 1030.02 189.038C1031.03 189.7 1031.94 190.438 1032.72 191.23C1033.52 192.03 1034.16 192.895 1034.65 193.838C1035.14 194.784 1035.38 195.837 1035.38 196.996C1035.38 198.319 1035.14 199.547 1034.69 200.706C1034.24 201.849 1033.57 202.865 1032.67 203.722C1031.76 204.587 1030.63 205.277 1029.3 205.767C1027.95 206.269 1026.4 206.518 1024.61 206.518C1023.18 206.518 1021.9 206.346 1020.77 206.003C1019.63 205.652 1018.63 205.138 1017.75 204.473C1016.89 203.808 1016.15 202.991 1015.54 202.02C1014.91 201.053 1014.4 199.959 1014 198.739L1016.72 197.499C1017.02 198.568 1017.46 199.539 1017.98 200.404C1018.51 201.253 1019.14 201.98 1019.85 202.583C1020.56 203.171 1021.35 203.62 1022.21 203.938C1023.08 204.252 1024 204.4 1024.98 204.4Z" fill="#005BAC" stroke="#005BAC" stroke-width="0.3"/>
<path d="M1040 171.408H1045.34V206.126H1040V171.408Z" fill="#005BAC" stroke="#005BAC" stroke-width="0.3"/>
<path d="M1076.48 171.411V173.657H1065.64V206.128H1060.62V173.657H1049.76V171.411H1076.48Z" fill="#005BAC" stroke="#005BAC" stroke-width="0.3"/>
<path d="M1083.97 171.411L1093.67 189.011L1103.33 171.411H1105.88L1095.03 191.12V206.128H1090.33V191.667L1079.15 171.411H1083.97Z" fill="#005BAC" stroke="#005BAC" stroke-width="0.3"/>
<path d="M1148.64 204.459C1150.44 204.459 1152.02 204.071 1153.41 203.272C1154.81 202.488 1155.97 201.374 1156.9 199.966C1157.86 198.554 1158.57 196.876 1159.06 194.934C1159.54 192.979 1159.79 190.861 1159.79 188.555C1159.79 186.29 1159.54 184.213 1159.06 182.307C1158.57 180.401 1157.86 178.773 1156.9 177.398C1155.97 176.03 1154.81 174.957 1153.41 174.194C1152.02 173.427 1150.44 173.055 1148.64 173.055C1146.8 173.055 1145.17 173.427 1143.79 174.194C1142.39 174.957 1141.22 176.03 1140.29 177.398C1139.35 178.773 1138.65 180.401 1138.18 182.307C1137.7 184.213 1137.46 186.29 1137.46 188.555C1137.46 190.861 1137.7 192.979 1138.18 194.934C1138.65 196.876 1139.35 198.554 1140.29 199.966C1141.22 201.374 1142.39 202.488 1143.79 203.272C1145.17 204.071 1146.8 204.459 1148.64 204.459ZM1148.64 206.128C1147 206.128 1145.44 205.92 1143.95 205.5C1142.46 205.084 1141.07 204.488 1139.79 203.72C1138.51 202.966 1137.34 202.047 1136.28 200.978C1135.23 199.9 1134.33 198.713 1133.6 197.419C1132.86 196.113 1132.28 194.718 1131.88 193.224C1131.46 191.734 1131.27 190.175 1131.27 188.555C1131.27 186.972 1131.46 185.445 1131.88 183.988C1132.28 182.528 1132.86 181.16 1133.6 179.891C1134.33 178.626 1135.23 177.471 1136.28 176.426C1137.34 175.382 1138.51 174.488 1139.79 173.745C1141.07 172.994 1142.46 172.431 1143.95 172.014C1145.44 171.61 1147 171.411 1148.64 171.411C1150.26 171.411 1151.82 171.61 1153.31 172.014C1154.81 172.431 1156.2 172.994 1157.48 173.745C1158.77 174.488 1159.93 175.382 1160.99 176.426C1162.05 177.471 1162.95 178.626 1163.69 179.891C1164.43 181.16 1164.99 182.528 1165.41 183.988C1165.81 185.445 1166.01 186.972 1166.01 188.555C1166.01 190.167 1165.81 191.706 1165.41 193.207C1164.99 194.709 1164.43 196.113 1163.69 197.419C1162.95 198.713 1162.05 199.9 1160.99 200.978C1159.93 202.047 1158.77 202.966 1157.48 203.72C1156.2 204.488 1154.81 205.084 1153.31 205.5C1151.82 205.92 1150.26 206.128 1148.64 206.128Z" fill="#005BAC" stroke="#005BAC" stroke-width="0.3"/>
<path d="M1188.72 171.411V173.657H1174.8V186.055H1184.87V188.306H1174.8V206.128H1170.02V171.411H1188.72Z" fill="#005BAC" stroke="#005BAC" stroke-width="0.3"/>
<path d="M1240.84 171.411V173.657H1230V206.128H1224.97V173.657H1214.11V171.411H1240.84Z" fill="#005BAC" stroke="#005BAC" stroke-width="0.3"/>
<path d="M1267.56 171.411V173.657H1251.35V186.055H1262.2V188.306H1251.35V203.886H1267.56V206.128H1246.18V171.411H1267.56Z" fill="#005BAC" stroke="#005BAC" stroke-width="0.3"/>
<path d="M1276.01 188.865C1276.01 191.204 1276.33 193.297 1276.94 195.13C1277.55 196.97 1278.41 198.533 1279.48 199.823C1280.57 201.088 1281.84 202.068 1283.33 202.745C1284.81 203.422 1286.41 203.749 1288.14 203.749C1289.15 203.749 1290.15 203.52 1291.1 203.072C1292.06 202.619 1292.94 202.027 1293.77 201.308C1294.59 200.586 1295.32 199.774 1295.97 198.864C1296.62 197.946 1297.15 197.019 1297.57 196.089L1299.63 197.586C1299.03 198.693 1298.32 199.774 1297.49 200.807C1296.68 201.831 1295.73 202.745 1294.64 203.52C1293.56 204.312 1292.34 204.941 1290.99 205.418C1289.62 205.896 1288.09 206.128 1286.41 206.128C1284.8 206.128 1283.27 205.924 1281.84 205.5C1280.41 205.084 1279.1 204.496 1277.9 203.737C1276.7 202.978 1275.62 202.072 1274.68 201.023C1273.73 199.949 1272.92 198.782 1272.27 197.501C1271.63 196.228 1271.13 194.852 1270.77 193.383C1270.42 191.934 1270.23 190.428 1270.23 188.865C1270.23 187.319 1270.42 185.8 1270.78 184.331C1271.14 182.862 1271.65 181.483 1272.32 180.181C1272.98 178.904 1273.8 177.716 1274.77 176.626C1275.74 175.557 1276.84 174.618 1278.04 173.859C1279.26 173.088 1280.6 172.476 1282.04 172.055C1283.47 171.631 1285.02 171.411 1286.65 171.411C1288.22 171.411 1289.65 171.647 1290.98 172.121C1292.28 172.606 1293.48 173.227 1294.58 174.018C1295.65 174.806 1296.62 175.716 1297.46 176.749C1298.31 177.777 1299.03 178.854 1299.63 179.952L1297.5 181.589C1296.27 178.904 1294.89 176.932 1293.39 175.671C1291.86 174.414 1290.12 173.794 1288.16 173.794C1286.46 173.794 1284.88 174.141 1283.4 174.843C1281.93 175.541 1280.63 176.541 1279.55 177.842C1278.46 179.148 1277.59 180.72 1276.96 182.576C1276.33 184.446 1276.01 186.539 1276.01 188.865Z" fill="#005BAC" stroke="#005BAC" stroke-width="0.3"/>
<path d="M1310.34 189.476V206.128H1304.98V171.411H1310.34V187.23H1326.34V171.411H1331.7V206.128H1326.34V189.476H1310.34Z" fill="#005BAC" stroke="#005BAC" stroke-width="0.3"/>
<path d="M1339.72 171.411H1342.45L1361.43 196.201H1361.63V171.411H1363.77V206.128H1362.64L1342.07 178.546H1341.9V205.331H1339.72V171.411Z" fill="#005BAC" stroke="#005BAC" stroke-width="0.3"/>
<path d="M1385.14 204.459C1386.81 204.459 1388.27 204.071 1389.56 203.272C1390.84 202.488 1391.91 201.374 1392.79 199.966C1393.65 198.554 1394.31 196.876 1394.76 194.934C1395.21 192.979 1395.45 190.861 1395.45 188.555C1395.45 186.29 1395.21 184.213 1394.76 182.307C1394.31 180.401 1393.65 178.773 1392.79 177.398C1391.91 176.03 1390.84 174.957 1389.56 174.194C1388.27 173.427 1386.81 173.055 1385.14 173.055C1383.45 173.055 1381.95 173.427 1380.67 174.194C1379.39 174.957 1378.31 176.03 1377.44 177.398C1376.58 178.773 1375.94 180.401 1375.5 182.307C1375.05 184.213 1374.83 186.29 1374.83 188.555C1374.83 190.861 1375.05 192.979 1375.5 194.934C1375.94 196.876 1376.58 198.554 1377.44 199.966C1378.31 201.374 1379.39 202.488 1380.67 203.272C1381.95 204.071 1383.45 204.459 1385.14 204.459ZM1385.14 206.128C1383.65 206.128 1382.21 205.92 1380.83 205.5C1379.45 205.084 1378.17 204.488 1376.99 203.72C1375.8 202.966 1374.72 202.047 1373.75 200.978C1372.77 199.9 1371.95 198.713 1371.27 197.419C1370.58 196.113 1370.06 194.718 1369.68 193.224C1369.3 191.734 1369.12 190.175 1369.12 188.555C1369.12 186.972 1369.3 185.445 1369.68 183.988C1370.06 182.528 1370.58 181.16 1371.27 179.891C1371.95 178.626 1372.77 177.471 1373.75 176.426C1374.72 175.382 1375.8 174.488 1376.99 173.745C1378.17 172.994 1379.45 172.431 1380.83 172.014C1382.21 171.61 1383.65 171.411 1385.14 171.411C1386.65 171.411 1388.09 171.61 1389.47 172.014C1390.85 172.431 1392.14 172.994 1393.32 173.745C1394.51 174.488 1395.58 175.382 1396.55 176.426C1397.53 177.471 1398.36 178.626 1399.03 179.891C1399.71 181.16 1400.24 182.528 1400.62 183.988C1401 185.445 1401.19 186.972 1401.19 188.555C1401.19 190.167 1401 191.706 1400.62 193.207C1400.24 194.709 1399.71 196.113 1399.03 197.419C1398.36 198.713 1397.53 199.9 1396.55 200.978C1395.58 202.047 1394.51 202.966 1393.32 203.72C1392.14 204.488 1390.85 205.084 1389.47 205.5C1388.09 205.92 1386.65 206.128 1385.14 206.128Z" fill="#005BAC" stroke="#005BAC" stroke-width="0.3"/>
<path d="M1409.2 171.411H1413.89V203.886H1427.91V206.128H1409.2V171.411Z" fill="#005BAC" stroke="#005BAC" stroke-width="0.3"/>
<path d="M1447.96 204.459C1449.76 204.459 1451.34 204.071 1452.73 203.272C1454.12 202.488 1455.28 201.374 1456.22 199.966C1457.17 198.554 1457.89 196.876 1458.37 194.934C1458.86 192.979 1459.11 190.861 1459.11 188.555C1459.11 186.29 1458.86 184.213 1458.37 182.307C1457.89 180.401 1457.17 178.773 1456.22 177.398C1455.28 176.03 1454.12 174.957 1452.73 174.194C1451.34 173.427 1449.76 173.055 1447.96 173.055C1446.11 173.055 1444.49 173.427 1443.1 174.194C1441.7 174.957 1440.54 176.03 1439.61 177.398C1438.67 178.773 1437.97 180.401 1437.49 182.307C1437.01 184.213 1436.78 186.29 1436.78 188.555C1436.78 190.861 1437.01 192.979 1437.49 194.934C1437.97 196.876 1438.67 198.554 1439.61 199.966C1440.54 201.374 1441.7 202.488 1443.1 203.272C1444.49 204.071 1446.11 204.459 1447.96 204.459ZM1447.96 206.128C1446.32 206.128 1444.76 205.92 1443.26 205.5C1441.78 205.084 1440.39 204.488 1439.11 203.72C1437.83 202.966 1436.66 202.047 1435.6 200.978C1434.54 199.9 1433.65 198.713 1432.91 197.419C1432.18 196.113 1431.6 194.718 1431.2 193.224C1430.77 191.734 1430.58 190.175 1430.58 188.555C1430.58 186.972 1430.77 185.445 1431.2 183.988C1431.6 182.528 1432.18 181.16 1432.91 179.891C1433.65 178.626 1434.54 177.471 1435.6 176.426C1436.66 175.382 1437.83 174.488 1439.11 173.745C1440.39 172.994 1441.78 172.431 1443.26 172.014C1444.76 171.61 1446.32 171.411 1447.96 171.411C1449.58 171.411 1451.14 171.61 1452.63 172.014C1454.13 172.431 1455.52 172.994 1456.8 173.745C1458.09 174.488 1459.25 175.382 1460.31 176.426C1461.36 177.471 1462.26 178.626 1463.01 179.891C1463.74 181.16 1464.3 182.528 1464.72 183.988C1465.13 185.445 1465.33 186.972 1465.33 188.555C1465.33 190.167 1465.13 191.706 1464.72 193.207C1464.3 194.709 1463.74 196.113 1463.01 197.419C1462.26 198.713 1461.36 199.9 1460.31 200.978C1459.25 202.047 1458.09 202.966 1456.8 203.72C1455.52 204.488 1454.13 205.084 1452.63 205.5C1451.14 205.92 1449.58 206.128 1447.96 206.128Z" fill="#005BAC" stroke="#005BAC" stroke-width="0.3"/>
<path d="M1488.48 173.79C1486.72 173.79 1485.1 174.145 1483.64 174.863C1482.16 175.577 1480.88 176.593 1479.81 177.912C1478.73 179.23 1477.88 180.83 1477.29 182.703C1476.69 184.572 1476.4 186.67 1476.4 189.008C1476.4 191.343 1476.72 193.44 1477.36 195.317C1478.03 197.195 1478.92 198.791 1480.04 200.1C1481.17 201.427 1482.49 202.439 1484.03 203.157C1485.56 203.875 1487.2 204.227 1488.96 204.227C1490.24 204.227 1491.4 204.031 1492.42 203.63C1493.46 203.231 1494.37 202.676 1495.18 201.945V190.29H1489.69V188.318H1500.07V202.925C1499.21 203.447 1498.36 203.908 1497.5 204.3C1496.63 204.692 1495.7 205.034 1494.7 205.316C1493.72 205.59 1492.62 205.794 1491.41 205.928C1490.21 206.067 1488.85 206.128 1487.33 206.128C1485.74 206.128 1484.2 205.92 1482.75 205.512C1481.3 205.1 1479.94 204.524 1478.73 203.769C1477.49 203.031 1476.37 202.133 1475.38 201.08C1474.39 200.039 1473.54 198.884 1472.84 197.603C1472.15 196.338 1471.61 194.979 1471.24 193.522C1470.85 192.069 1470.67 190.567 1470.67 189.008C1470.67 187.453 1470.84 185.935 1471.22 184.466C1471.57 182.988 1472.09 181.597 1472.76 180.295C1473.42 178.993 1474.24 177.793 1475.21 176.712C1476.18 175.618 1477.27 174.679 1478.48 173.904C1479.68 173.112 1481 172.496 1482.43 172.059C1483.87 171.631 1485.37 171.411 1486.99 171.411C1488.54 171.411 1489.97 171.643 1491.26 172.121C1492.57 172.602 1493.76 173.227 1494.84 174.018C1495.91 174.802 1496.87 175.712 1497.71 176.749C1498.54 177.773 1499.26 178.85 1499.86 179.952L1497.75 181.589C1496.53 178.899 1495.16 176.928 1493.66 175.667C1492.15 174.414 1490.43 173.79 1488.48 173.79Z" fill="#005BAC" stroke="#005BAC" stroke-width="0.3"/>
<path d="M1507.56 171.411L1517.25 189.011L1526.91 171.411H1529.46L1518.62 191.12V206.128H1513.91V191.667L1502.74 171.411H1507.56Z" fill="#005BAC" stroke="#005BAC" stroke-width="0.3"/>
<path d="M473.5 39.5V25C473.5 25 477.5 24.5 481.5 25.5C485.5 26.5 488.5 26.8858 488.5 30C488.5 33.1142 488.737 39.5 488.737 39.5H540.5V47L418 47.5V39.5H473.5Z" fill="#005BAC"/>
<path d="M459.5 103.5C457.5 98.5 441 58 441 58L432 60.5L446.5 137C446.5 137 454.111 135.975 458 133.5C461 131.591 462.895 129 464 123C465.105 117 461.5 108.5 459.5 103.5Z" fill="#005BAC"/>
<path d="M519.5 57C514 53 510.5 54 510.5 54C510.5 54 492.5 137.5 494 140.5C495.5 143.5 503.5 142 503.5 142C503.5 142 521.5 98.5 525.5 84.5C529.5 70.5 525 61 519.5 57Z" fill="#005BAC"/>
<path d="M414 149.5V142.5H544.5V149.5H414Z" fill="#005BAC"/>
<path d="M1437.26 26.6608C1432 28 1421.13 30.5424 1414.2 31.7018L1412.54 31.9539V55.8485V79.7935H1409.88C1405.06 79.7935 1404.61 82 1404.61 92.9003L1405.05 99.4999H1411.02H1417.06V92.9003V86.851H1464.03H1511V92.9003V98.9999L1516.92 98.8487L1522.8 98.6975L1522.95 92.3962C1523.2 81.3562 1522.6 79.7935 1517.88 79.7935H1515.07L1514.91 56.1005L1514.76 32.4076C1514.76 32.4076 1514.76 31.5934 1514 30.4999C1513.56 29.8734 1512.75 29.6598 1512 29.635C1511.25 29.6103 1498.94 29.4838 1498.94 29.4838L1485.88 29.3325V32.8613V36.4404L1494.32 36.5412L1502.71 36.6925V41.9856V47.2787L1494.32 47.4299L1485.88 47.5307V50.8074V54.0841H1494.42H1502.96V58.6211V63.158L1494.57 63.2588L1486.13 63.4101L1485.98 66.7876L1485.83 70.2155H1494.42H1502.96V75.0045V79.7935H1463.78H1425.2V75.0045V70.2155H1433.14L1442.87 70.3163V66.7876V63.2589L1433.14 63.158H1425.2V58.6211V54.0841H1433.14L1442.87 54.1849V50.9083V47.6316L1433.29 47.4299H1425.2V42.1512V37.2561L1429.72 36.7933C1435.25 36.4404 1438.89 35.9999 1441.49 34.0656C1443.2 32.5029 1442.34 26.252 1440.38 25.9999C1439.98 25.9495 1438.22 26.4163 1437.26 26.6608Z" fill="#005BAC"/>
<path d="M1472.78 31.2999C1467.48 34.5979 1466.72 34.9023 1465.86 34.0905C1464.6 32.9743 1453.03 29.3719 1449.7 29.1182L1446.17 28.8138L1445.51 30.5896C1444.7 32.9743 1444.65 32.8728 1446.87 33.989C1447.93 34.5472 1449.15 35.3082 1449.5 35.7141C1449.9 36.0693 1451.22 36.9826 1452.48 37.6929C1453.74 38.4032 1455.31 39.4687 1455.96 39.9761L1457.12 40.9401L1454.65 42.4623C1453.34 43.3248 1450.91 44.8977 1449.35 45.8617C1447.73 46.8765 1446.42 47.942 1446.42 48.1957C1446.42 48.3986 1446.87 49.6671 1447.43 50.9355C1448.39 53.1173 1448.54 53.2187 1449.85 52.8128C1450.61 52.5592 1452.83 51.8996 1454.75 51.24C1456.72 50.6311 1459.95 49.3627 1462.02 48.3986C1464.04 47.4346 1466.06 46.775 1466.47 46.9272C1466.87 47.1302 1469.14 48.5001 1471.47 50.0223C1473.74 51.5444 1475.86 52.8128 1476.16 52.8128C1477.02 52.8128 1478.69 50.2252 1479.04 48.3986C1479.44 46.2676 1478.64 43.2741 1477.22 41.752L1476.21 40.6357L1477.68 38.6062C1479.65 35.8663 1480.45 32.5684 1479.75 29.9807C1479.44 28.8645 1478.94 27.9512 1478.59 28.002C1478.23 28.002 1475.66 29.4734 1472.78 31.2999Z" fill="#005BAC"/>
<path d="M1477.13 55.8301C1474.35 57.7851 1467.36 61.996 1466.95 61.996C1466.65 61.996 1465.39 61.4446 1464.07 60.7929C1460.78 59.1888 1457.28 58.0859 1451.77 56.9831C1446.8 56.0306 1445.99 56.0807 1445.59 57.3841C1445.44 57.8353 1445.18 58.5872 1445.03 59.0384C1444.68 59.8906 1447.31 62.0963 1451.72 64.5025C1452.88 65.1542 1453.84 65.856 1453.84 66.0565C1453.84 66.2069 1454.55 66.6581 1455.36 67.009C1456.22 67.3599 1456.88 67.8111 1456.88 67.9615C1456.88 68.162 1455.61 69.1145 1454.09 70.0669C1452.53 70.9693 1450.04 72.5233 1448.53 73.4757L1445.79 75.13L1446.8 76.9347C1447.31 77.9373 1447.77 79.0401 1447.77 79.391C1447.77 80.4939 1451.21 80.0427 1454.6 78.4887C1455.16 78.2381 1457.23 77.4861 1459.16 76.7342C1461.13 76.0323 1463.41 75.0298 1464.27 74.5285C1465.79 73.576 1465.79 73.576 1467.56 74.729C1475.06 79.7419 1475.61 80.0427 1476.57 79.5916C1477.84 78.8897 1479.16 76.0323 1479.16 73.9269C1479.16 72.2225 1477.54 69.0643 1476.32 68.3625C1475.76 68.0617 1475.92 67.6106 1477.13 66.4576C1478.9 64.703 1480.37 60.2916 1479.92 58.136C1479.06 54.4766 1479.06 54.4766 1477.13 55.8301Z" fill="#005BAC"/>
<path d="M1428.19 97.5546V101.059H1453.51C1469.25 101.059 1478.63 101.259 1478.37 101.51C1478.07 101.81 1476.15 102.661 1474.09 103.512C1472.02 104.313 1469.4 105.465 1468.29 105.966C1467.18 106.516 1465.11 107.367 1463.65 107.868C1461.38 108.669 1460.87 108.669 1459.76 108.068C1458.55 107.468 1458.4 107.518 1457.39 108.719C1456.84 109.47 1455.98 110.421 1455.58 110.872C1454.87 111.573 1454.97 111.973 1456.64 115.378C1457.65 117.431 1458.45 119.183 1458.45 119.333C1458.45 119.483 1446.65 119.583 1432.23 119.583H1406V122.838V126.092H1433.44C1454.11 126.092 1461.02 126.242 1461.28 126.693C1461.48 126.993 1461.78 129.046 1461.88 131.199C1462.18 135.955 1461.18 139.059 1458.81 140.811C1455.43 143.264 1451.9 143.665 1447.36 142.113C1445.84 141.612 1444.48 141.262 1444.33 141.362C1443.93 141.612 1441.66 146.168 1441.86 146.318C1444.23 148.121 1448.97 150.324 1452.4 151.175C1457.44 152.426 1461.58 152.276 1465.46 150.574C1468.34 149.372 1471.92 145.818 1473.58 142.614C1475.15 139.509 1475.45 134.303 1474.24 129.697L1473.28 126.092H1497.64H1522V122.838V119.583H1495.67L1469.3 119.533L1467.68 117.33C1466.77 116.129 1466.02 114.877 1466.02 114.577C1466.02 114.327 1466.87 114.076 1467.93 114.076C1473.48 114.076 1485.38 111.022 1490.48 108.219C1497.69 104.363 1501.73 97.9551 1498.75 95.2516C1497.74 94.3504 1496.28 94.3003 1462.94 94.1501L1428.19 93.9999V97.5546Z" fill="#005BAC"/>
</svg>
